<svg xmlns="http://www.w3.org/2000/svg" width="320" height="75" viewBox="0 0 320 75">
  <g fill="none" fill-rule="evenodd">
    <path fill="#777" fill-rule="nonzero" d="M142.696497,3.71767792 C142.696497,2.04306139 144.05432,0.672621818 145.730201,0.672621818 C146.532056,0.672621818 147.284226,0.997612816 147.854337,1.56470385 C148.423723,2.14932249 148.730539,2.91213844 148.730539,3.71767792 C148.730539,4.5250432 148.423723,5.29917906 147.854337,5.86225335 C147.284226,6.43956882 146.532056,6.76200371 145.730201,6.76200371 C144.05432,6.76200371 142.696497,5.39740667 142.696497,3.71767792 Z M142.440092,3.71767792 C142.440092,5.54018362 143.916869,7.02309198 145.730201,7.02309198 C146.607128,7.02309198 147.415874,6.6813037 148.042198,6.05578731 C148.666347,5.42734967 149,4.60355226 149,3.71767792 C149,2.83107327 148.666347,2.00654554 148.042198,1.37737758 C147.415874,0.756243097 146.607128,0.410438069 145.730201,0.410438069 C143.916869,0.410803228 142.440092,1.89444191 142.440092,3.71767792 Z M144.499674,5.66470264 L144.958809,5.66470264 L144.958809,4.12811599 L146.000024,4.12811599 C146.179181,4.12811599 146.310104,4.14126169 146.407299,4.18909745 C146.558893,4.27710063 146.641218,4.42681558 146.648109,4.66708983 L146.689816,5.26814059 C146.689816,5.40470984 146.693442,5.49928588 146.693442,5.54712163 C146.717378,5.59459222 146.734424,5.63512481 146.73805,5.6650678 L147.318316,5.6650678 L147.318316,5.5807162 C147.24397,5.55478996 147.210604,5.47993248 147.166722,5.36271662 C147.143874,5.29954422 147.143874,5.19729986 147.139159,5.06146092 L147.119213,4.57981696 C147.119213,4.37240698 147.072429,4.21283275 147.015127,4.12848115 C146.943682,4.03646123 146.826541,3.95539606 146.693442,3.90098745 C146.848663,3.82576482 146.967618,3.7038019 147.06445,3.57124939 C147.143874,3.42883761 147.189207,3.26232537 147.189207,3.04907285 C147.189207,2.63826962 147.031085,2.35381121 146.710488,2.19971435 C146.542573,2.11864918 146.319533,2.08140302 146.06748,2.08140302 L144.500037,2.08140302 L144.500037,5.66470264 L144.499674,5.66470264 Z M144.958809,3.71767792 L144.958809,2.49184109 L146.06748,2.49184109 C146.229592,2.49184109 146.360877,2.51886281 146.455533,2.56669857 C146.61293,2.65835333 146.714114,2.83143842 146.714114,3.08595385 C146.714114,3.33024483 146.648109,3.49310549 146.519362,3.58804668 C146.397507,3.67678018 146.229592,3.71767792 146.019971,3.71767792 L144.958809,3.71767792 Z M13.4955385,8.26937768 L0,29.3087106 L9.22441742,29.3087106 L22.1977164,9.19505429 L13.4955385,8.26937768 Z M68.9998028,7.797593 L68.9998028,0 L42.7703251,0 C39.2027767,0.224207273 37.6418609,1.91781205 36.4722621,3.14036245 C35.2250527,4.43777033 34.5164027,7.16952051 34.5164027,7.16952051 L34.5164027,0.050757021 C34.5164027,0.050757021 21.641749,0.050757021 20.5921927,0.050757021 C19.5408231,0.050757021 18.5398641,0.495154824 17.7837048,1.53841244 C16.9949056,2.56961983 13.8092448,7.797593 13.8092448,7.797593 L68.9998028,7.797593 Z M140.319945,7.80380069 L140.319945,0 L112.255738,0 C108.69907,0.224207273 107.12945,1.91781205 105.958038,3.14036245 C104.710103,4.43777033 104.007981,7.16952051 104.007981,7.16952051 L104.007981,7.797593 L140.319945,7.80380069 Z M78.2111643,0.0376113177 L70.3692308,0.0376113177 L70.3692308,7.797593 L78.2115269,7.797593 L78.2115269,0.0376113177 L78.2111643,0.0376113177 Z M103.951405,0.0376113177 L96.1170877,0.0376113177 L96.1170877,7.797593 L103.951405,7.797593 L103.951405,0.0376113177 Z M103.951405,10.5983581 L96.2483729,10.1400843 L96.2483729,19.1423349 C96.2483729,19.1423349 96.2251622,21.7356901 93.7089834,21.7356901 C91.2149272,21.7356901 80.468762,21.7356901 80.468762,21.7356901 C80.468762,21.7356901 78.2267589,21.5523805 78.2267589,19.1664354 C78.2267589,16.7863328 78.2267589,8.91826421 78.2267589,8.91826421 L70.4461161,8.35738087 L70.4461161,22.1636557 C71.7034801,28.7854386 77.7048821,29.2955649 77.7048821,29.2955649 C77.7048821,29.2955649 78.3156122,29.3368278 78.4153454,29.3466871 L96.2987835,29.3466871 C96.2987835,29.3466871 103.951768,28.7321255 103.951768,21.4125249 C103.951405,14.0914636 103.951405,10.5983581 103.951405,10.5983581 Z M26.5566027,29.3130925 L63.2355846,29.3130925 C69.6239516,28.0364987 70.2912576,22.2582318 70.2912576,22.2582318 C70.5919079,20.5408917 70.4163774,19.1518291 70.4163774,19.1518291 C70.2241643,17.994642 68.0155265,12.8827892 63.2207153,12.4376611 C60.3621795,12.1725561 34.9175117,10.1598028 34.9175117,10.1598028 C35.4100125,12.70021 36.5567634,13.9822812 37.3187253,14.7158845 C39.0852728,16.4062029 41.8962993,16.8849256 41.8962993,16.8849256 C42.5744853,16.9491934 61.506029,18.5106109 61.506029,18.5106109 C62.1087804,18.5416493 63.2519046,18.6942856 63.238486,20.1837668 C63.238486,20.3645202 63.0727475,21.6772647 61.6202689,21.6772647 C59.8533587,21.6772647 34.1827497,21.6772647 34.1827497,21.6772647 L34.1827497,10.0951698 L26.5566027,9.53939869 L26.5566027,29.3130925 Z M104.007981,29.3802817 L132.069286,29.3802817 C139.108639,28.9760513 140.10307,22.3228648 140.10307,22.3228648 C140.352585,20.5748514 140.146953,19.1518291 140.146953,19.1518291 C139.944948,17.5772659 137.696054,12.8459082 132.895803,12.3872692 C130.053224,12.1225294 104.464215,10.6191721 104.464215,10.6191721 C105.222913,13.2399142 106.240555,14.0334034 107.009407,14.7597035 C108.780307,16.4569599 111.433574,16.8641115 111.433574,16.8641115 C112.10088,16.9177898 131.24277,18.5102457 131.24277,18.5102457 C131.860391,18.5412842 133.090917,18.6062824 133.090917,20.0924772 C133.090917,20.5405265 132.86135,21.0050081 132.577382,21.2595235 C132.577382,21.2595235 131.901009,21.6297941 131.273234,21.6297941 C129.503785,21.6297941 104.025752,21.6297941 104.025752,21.6297941 L104.007981,29.3802817 Z" transform="translate(1 23)"/>
    <g fill="#777" transform="translate(171 23)">
      <path d="M92.4772539,34.5218749 C83.7809809,41.0219674 71.176264,44.4900017 60.3238376,44.4900017 C45.1069849,44.4900017 31.4079128,38.7826077 21.0440351,29.290099 C20.2297786,28.5436415 20.9593496,27.5263547 21.9364624,28.1076604 C33.1211065,34.7068389 46.9504681,38.676915 61.2358095,38.676915 C70.8701035,38.676915 81.4684858,36.6555421 91.213525,32.4608726 C92.6857042,31.8267143 93.9168613,33.4385274 92.4772539,34.5218749"/>
      <path d="M95.4193722 30.7760617C94.3418775 29.3731653 88.2699021 30.1132263 85.5444852 30.4414272 84.7141803 30.5443922 84.5874207 29.8107673 85.3353218 29.2830675 90.1713555 25.827309 98.1067604 26.8247813 99.0321349 27.9831361 99.9575046 29.1479294 98.7912841 37.2242422 94.2468055 41.0789862 93.5496063 41.6710346 92.884097 41.3557083 93.1946714 40.5705972 94.2151156 37.9836041 96.503201 32.1853942 95.4193722 30.7760617M85.6747959 4.25486503L85.6747959.858779552C85.6747959.344812663 86.0507644 0 86.5019263 0L101.145905 0C101.61587 0 101.991839.351319359 101.991839.858779552L101.991839 3.76692244C101.985576 4.25486503 101.590805 4.89244424 100.888993 5.90086041L93.3006929 17.1495841C96.1204608 17.0780229 99.0968798 17.5139144 101.653467 19.0102756 102.229952 19.3485816 102.386605 19.8430309 102.430469 20.3309784L102.430469 23.9547709C102.430469 24.4492202 101.904112 25.0282417 101.352691 24.7289734 96.8473304 22.2762421 90.8631628 22.0094998 85.8815773 24.7549977 85.3740205 25.0412575 84.8413985 24.4687378 84.8413985 23.9742885L84.8413985 20.5326612C84.8413985 19.9796591 84.8476607 19.0362974 85.3802826 18.1970355L94.1716868 5.10714037 86.5207246 5.10714037C86.0507644 5.10714037 85.6747959 4.76233019 85.6747959 4.25486503M30.2632025 25.86628L25.6547914 25.86628C25.2140468 25.8337719 24.8640382 25.5021527 24.8316288 25.0794973L24.8316288 1.35248938C24.8316288.877818963 25.2270066.500680402 25.7196077.500680402L30.016902.500680402C30.4641363.520174868 30.8206198.864810251 30.8530317 1.29396382L30.8530317 4.39558057 30.9372927 4.39558057C32.0586073 1.39800127 34.1651214 0 37.0040623 0 39.8883697 0 41.6902519 1.39800127 42.9865708 4.39558057 44.1014055 1.39800127 46.6357069 0 49.3514975 0 51.2830123 0 53.3960113.799786532 54.6858479 2.59443075 56.1442063 4.59064676 55.8460517 7.49068676 55.8460517 10.0331025L55.8395718 25.0079754C55.8395718 25.4826458 55.4441941 25.86628 54.951593 25.86628L50.3496593 25.86628C49.8894702 25.8337719 49.5200194 25.4631389 49.5200194 25.0079754L49.5200194 12.4324621C49.5200194 11.4311038 49.6107578 8.93420736 49.3903867 7.98486405 49.046863 6.39179658 48.0162893 5.94313118 46.6810786 5.94313118 45.5662439 5.94313118 44.3995576 6.69090023 43.9264012 7.88733219 43.4532449 9.08376167 43.4986165 11.0864758 43.4986165 12.4324621L43.4986165 25.0079754C43.4986165 25.4826458 43.1032387 25.86628 42.6106377 25.86628L38.008709 25.86628C37.542035 25.8337719 37.1790642 25.4631389 37.1790642 25.0079754L37.1725843 12.4324621C37.1725843 9.78601386 37.6068464 5.8911137 34.3336458 5.8911137 31.0215487 5.8911137 31.1511813 9.68847456 31.1511813 12.4324621L31.1511813 25.0079754C31.1511813 25.4826458 30.7558035 25.86628 30.2632025 25.86628M115.79755 2.877487e-14C122.564797 2.877487e-14 126.227447 6.01190042 126.227447 13.6561728 126.227447 21.0416515 122.179925 26.9009312 115.79755 26.9009312 109.152176 26.9009312 105.534423 20.8890308 105.534423 13.3973816 105.534423 5.85927977 109.197077 0 115.79755 0M115.836034 4.94356348C112.474865 4.94356348 112.263185 9.6814147 112.263185 12.6342834 112.263185 15.5937836 112.218283 21.9109227 115.79755 21.9109227 119.331913 21.9109227 119.498689 16.8147462 119.498689 13.7092543 119.498689 11.6654781 119.415301 9.22355782 118.818754 7.28594455 118.305597 5.60049363 117.285703 4.94356348 115.836034 4.94356348M135.702597 25.86628L131.188529 25.86628C130.735844 25.8337719 130.372423 25.4631389 130.372423 25.0079754L130.366051 1.27445695C130.404306.838800267 130.78048.500680402 131.239537.500680402L135.441194.500680402C135.83649.520174868 136.161656.793285896 136.250921 1.16391886L136.250921 4.79221856 136.333802 4.79221856C137.602591 1.54755558 139.381436 0 142.511955 0 144.545836 0 146.528713.747769045 147.803874 2.79600254 148.989773 4.69468422 148.989773 7.88733219 148.989773 10.1826519L148.989773 25.118516C148.938768 25.5346608 148.562594 25.86628 148.116292 25.86628L143.570342 25.86628C143.155911 25.8337719 142.811618 25.5216595 142.766991 25.118516L142.766991 12.2308903C142.766991 9.63645956 143.060277 5.83909373 139.929755 5.83909373 138.826745 5.83909373 137.812989 6.59336837 137.309301 7.7377754 136.671724 9.18779912 136.588838 10.6313172 136.588838 12.2308903L136.588838 25.0079754C136.582466 25.4826458 136.187163 25.86628 135.702602 25.86628M73.4050643 15.0295649C73.4050643 16.8635675 73.4498224 18.3930075 72.554671 20.0217636 71.8321571 21.3459571 70.6812492 22.1603338 69.4088566 22.1603338 67.6633119 22.1603338 66.6402835 20.7831714 66.6402835 18.750539 66.6402835 14.7382433 70.1121888 14.0099391 73.4050643 14.0099391L73.4050643 15.0295649M77.9895166 26.5036742C77.6890045 26.7817549 77.2542133 26.8016176 76.9153354 26.6162339 75.4063655 25.3185274 75.1314274 24.7160214 74.3066104 23.4779031 71.8129754 26.1130415 70.0418519 26.9009312 66.8129161 26.9009312 62.9829488 26.9009312 60.0097697 24.4578009 60.0097697 19.5649209 60.0097697 15.7446281 62.0046808 13.1425934 64.8563754 11.8713714 67.324434 10.7458052 70.7707605 10.5471804 73.4050643 10.235996L73.4050643 9.62686826C73.4050643 8.50792378 73.4881857 7.18373283 72.8487933 6.21707851 72.2989145 5.34973024 71.2375178 4.99219866 70.2976133 4.99219866 68.5648531 4.99219866 67.0239194 5.91251083 66.6466733 7.81934509 66.5699466 8.24308913 66.2694345 8.66020888 65.853825 8.68007161L61.4484052 8.19011765C61.0775562 8.10405005 60.6619516 7.79286062 60.7706494 7.2036006 61.7808906 1.66848409 66.6147071 0 70.9370033 0 73.1493078 0 76.0393657.609127788 77.7849104 2.34381675 79.9972101 4.4823845 79.7862116 7.33601541 79.7862116 10.441245L79.7862116 17.7772605C79.7862116 19.9820407 80.6685736 20.948695 81.4997853 22.1404711 81.7875153 22.5642076 81.851455 23.0740217 81.4805914 23.3918279 80.5534714 24.1929662 78.903835 25.6826807 77.9958967 26.5169202L77.9895069 26.5036616M13.3917962 15.0295649C13.3917962 16.8635675 13.4365377 18.3930075 12.5416247 20.0217636 11.8192947 21.3459571 10.6750805 22.1603338 9.39662717 22.1603338 7.6515384 22.1603338 6.63517024 20.7831714 6.63517024 18.750539 6.63517024 14.7382433 10.1061687 14.0099391 13.3917962 14.0099391L13.3917962 15.0295649M17.9750486 26.5036742C17.6746125 26.7817549 17.2399349 26.8016176 16.9011455 26.6162339 15.3925746 25.3185274 15.1240964 24.7160214 14.2931019 23.4779031 11.8001181 26.1130415 10.0358575 26.9009312 6.80136719 26.9009312 2.97879085 26.9009312 0 24.4578009 0 19.5649209 0 15.7446281 2.00077846 13.1425934 4.8453351 11.8713714 7.31274901 10.7458052 10.7581802 10.5471804 13.3917962 10.235996L13.3917962 9.62686826C13.3917962 8.50792378 13.4748959 7.18373283 12.842061 6.21707851 12.2859302 5.34973024 11.2248181 4.99219866 10.2915447 4.99219866 8.55924447 4.99219866 7.01231295 5.91251083 6.63517024 7.81934509 6.55846113 8.24308913 6.25802508 8.66020888 5.84892206 8.68007161L1.43825968 8.19011765C1.06750756 8.10405005.658402108 7.79286062.760678472 7.2036006 1.77704907 1.66848409 6.6032075 0 10.924382 0 13.1361016 0 16.0254046.609127788 17.7704934 2.34381675 19.9822201 4.4823845 19.7712719 7.33601541 19.7712719 10.441245L19.7712719 17.7772605C19.7712719 19.9820407 20.6534082 20.948695 21.4844028 22.1404711 21.7784458 22.5642076 21.8423688 23.0740217 21.4716167 23.3918279 20.5447388 24.1929662 18.8955358 25.6826807 17.9878297 26.5169202L17.9750486 26.5036616"/>
    </g>
  </g>
</svg>
