<svg xmlns="http://www.w3.org/2000/svg" width="320" height="75" viewBox="0 0 320 75">
  <g fill="none" fill-rule="evenodd">
    <g fill="#777" fill-rule="nonzero" transform="translate(1 23)">
      <path d="M28.1446904 19.4709431C28.1446904 20.4426907 28.0727091 21.0545318 27.9647371 21.2704757 27.8207745 21.4864196 27.5688399 21.5943916 27.1369521 21.5943916 26.6690736 21.5943916 26.3811484 21.450429 26.2371858 21.1625038 26.0932232 20.8745785 26.0212419 20.2267468 26.0212419 19.2190085 26.0212419 18.3552328 26.0932232 17.6714104 26.2731764 17.2395226 26.4531297 16.7716441 27.1009614 16.1957937 28.180681 15.5119713L28.180681 19.4709431 28.1446904 19.4709431zM25.9492606 10.7971958C25.9492606 9.71747621 26.0212419 9.03365381 26.1292138 8.78171924 26.2371858 8.52978467 26.525111 8.38582206 26.9929895 8.38582206 27.3888867 8.38582206 27.6768119 8.52978467 27.8567651 8.85370055 28.0367184 9.17761642 28.1086997 9.82544817 28.1086997 10.8331864 28.1086997 11.6249808 28.0367184 12.1648406 27.8567651 12.4527658 27.7128025 12.7047004 26.4531297 13.2445602 24.1857186 14.0003639 22.0262794 14.7201769 20.6946253 15.332018 20.1547655 15.8358872 19.6149057 16.3757469 19.3269805 17.3474946 19.3269805 18.7871207L19.3269805 20.3707094C19.3269805 22.3142046 19.8308496 23.5738775 20.8385879 24.1497279 21.8463262 24.7255784 22.9620364 25.0135036 24.1857186 25.0135036 25.1214755 25.0135036 25.9132699 24.8335503 26.5970923 24.5096344 27.2809147 24.1497279 27.8207745 23.6458588 28.2526623 22.9620364L28.2526623 24.6895877 35.0548957 24.6895877 35.0548957 14.9721115C35.0548957 11.7689434 34.9469237 9.64549491 34.6949891 8.63775663 34.4430546 7.63001836 33.7232415 6.7662427 32.53555 6.04642964 31.3478584 5.32661659 29.5483258 5.00270072 27.1729427 5.00270072 25.1934568 5.00270072 23.6098681 5.32661659 22.3501953 5.93845769 21.1265131 6.55029878 20.2987281 7.27011183 19.8668403 8.09789684 19.4709431 8.92568185 19.2549992 9.53752295 19.2549992 11.0491304L19.2549992 11.8769154 25.8412886 11.8769154 25.8412886 10.7971958 25.9492606 10.7971958zM44.6284093 5.32661659L44.6284093 7.16213987C45.1682691 6.44232682 45.8161008 5.86647638 46.5719045 5.50656985 47.3277082 5.14666333 48.1914839 4.96671006 49.1632315 4.96671006 51.0347454 4.96671006 52.5103622 5.68652312 53.5900818 7.16213987 54.1659322 6.44232682 54.8497546 5.86647638 55.5695677 5.50656985 56.3253714 5.14666333 57.1171657 4.96671006 58.0169321 4.96671006 59.2046236 4.96671006 60.1763712 5.21864463 60.9681656 5.68652312 61.7599599 6.19039225 62.2638291 6.7662427 62.479773 7.48605575 62.6957169 8.2058688 62.8036889 9.32157903 62.8036889 10.9411584L62.8036889 24.6895877 56.0014555 24.6895877 56.0014555 12.0568686C56.0014555 10.4012986 55.9294742 9.39356034 55.8215022 8.99766316 55.6775396 8.60176598 55.3896144 8.38582206 54.9217359 8.38582206 54.4178668 8.38582206 54.1299416 8.56577533 53.985979 8.96167251 53.8420163 9.35756969 53.770035 10.365308 53.770035 12.020878L53.770035 24.6535971 46.9678017 24.6535971 46.9678017 12.3807845C46.9678017 10.4732799 46.8958204 9.35756969 46.7878484 8.96167251 46.6798765 8.56577533 46.3919512 8.38582206 45.8880821 8.38582206 45.5641662 8.38582206 45.3122317 8.49379402 45.0962878 8.67374729 44.8803438 8.8896912 44.7723719 9.10563512 44.7363812 9.39356034 44.7003906 9.68148556 44.7003906 10.2933267 44.7003906 11.2290836L44.7003906 24.6176064 37.7901853 24.6176064 37.7901853 5.32661659 44.6284093 5.32661659zM71.9813053 12.3447939L71.9813053 10.7612051C71.9813053 9.68148556 72.0532866 8.99766316 72.1612585 8.74572859 72.2692305 8.49379402 72.5931464 8.38582206 73.0970155 8.38582206 73.4929127 8.38582206 73.7448473 8.52978467 73.8888099 8.8177099 74.0327725 9.10563512 74.0687631 9.75346686 74.0687631 10.7612051L74.0687631 12.3447939 71.9813053 12.3447939zM81.0869404 12.7766817C81.0869404 10.9051677 80.8350058 9.42955099 80.3311367 8.38582206 79.8272675 7.34209314 78.9275012 6.51430813 77.6318377 5.90246703 76.3361742 5.29062594 74.7165949 4.96671006 72.7730996 4.96671006 71.1535203 4.96671006 69.7498848 5.21864463 68.490212 5.75850442 67.2665298 6.26237356 66.3667635 7.01817726 65.8269037 7.98992489 65.2870439 8.96167251 64.9991187 10.2933267 64.9991187 11.9848873L64.9991187 17.6354198C64.9991187 19.0750459 65.1070906 20.1907561 65.3590252 20.9465598 65.6109598 21.7023635 66.0428476 22.3861859 66.6546887 23.0340177 67.2665298 23.6458588 68.1662961 24.1497279 69.317997 24.5096344 70.4696979 24.869541 71.7653614 25.0494942 73.2409781 25.0494942 74.7525855 25.0494942 76.048249 24.869541 77.0559873 24.5096344 78.0637256 24.1497279 78.8915106 23.6098681 79.575333 22.8900551 80.2231647 22.170242 80.6550526 21.4864196 80.8350058 20.8385879 81.0149591 20.1907561 81.122931 19.2909898 81.122931 18.1032983L81.122931 16.9156067 74.500651 16.9156067 74.500651 19.1830179C74.500651 20.1547655 74.392679 20.7666066 74.2127257 21.1265131 74.0327725 21.450429 73.6728659 21.6303822 73.1330062 21.6303822 72.7011183 21.6303822 72.4131931 21.5224103 72.2692305 21.2704757 72.1252679 21.0185411 72.0532866 20.4426907 72.0532866 19.578915L72.0532866 15.332018 81.1589217 15.332018 81.1589217 12.7766817 81.0869404 12.7766817zM109.015687 2.19542981L109.015687 4.82274745 111.247107 4.82274745 111.247107 7.27011183 109.015687 7.27011183 109.015687 19.1830179C109.015687 20.4426907 109.087668 21.1625038 109.267621 21.3064664 109.411584 21.450429 110.095406 21.5224103 111.247107 21.5224103L111.247107 24.6535971 108.403846 24.6535971C106.820257 24.6535971 106.064453 24.6176064 105.380631 24.5096344 104.696809 24.4016625 104.084967 24.1497279 103.581098 23.7538307 103.077229 23.3579336 102.753313 22.8900551 102.609351 22.3501953 102.465388 21.8463262 102.429397 20.622644 102.429397 18.6791487L102.429397 7.27011183 101.061753 7.27011183 101.061753 4.82274745 102.429397 4.82274745 102.429397 2.19542981 109.015687 2.19542981zM121.504443 19.578915C121.504443 20.4067 121.432462 20.9465598 121.288499 21.1984944 121.144537 21.450429 120.856612 21.5584009 120.460714 21.5584009 120.064817 21.5584009 119.776892 21.4144383 119.632929 21.1265131 119.488967 20.8385879 119.416985 20.2627374 119.416985 19.3629711L119.416985 10.6532332C119.416985 9.64549491 119.488967 9.03365381 119.632929 8.78171924 119.776892 8.52978467 120.064817 8.38582206 120.496705 8.38582206 120.928593 8.38582206 121.216518 8.52978467 121.32449 8.78171924 121.468453 9.03365381 121.504443 9.64549491 121.504443 10.6532332L121.504443 19.578915zM128.162714 9.03365381C127.94677 8.34983141 127.514882 7.70199966 126.903041 7.09015857 126.2912 6.44232682 125.427424 5.93845769 124.275724 5.54256051 123.160013 5.14666333 121.792369 4.96671006 120.20878 4.96671006 118.337266 4.96671006 116.789668 5.25463528 115.601976 5.86647638 114.414285 6.47831747 113.550509 7.27011183 113.118621 8.31384076 112.650743 9.32157903 112.434799 10.7252145 112.434799 12.5247471L112.434799 17.4914572C112.434799 19.1470272 112.578761 20.3707094 112.830696 21.1984944 113.082631 22.0262794 113.514518 22.7101018 114.090369 23.2859523 114.70221 23.8618027 115.529995 24.2936905 116.609715 24.5816158 117.689434 24.869541 118.985098 25.0135036 120.532696 25.0135036 121.936331 25.0135036 123.160013 24.8335503 124.239733 24.5096344 125.319452 24.1857186 126.183228 23.6458588 126.867051 22.9620364 127.550873 22.2422233 127.982761 21.4864196 128.198705 20.6946253 128.414649 19.8668403 128.522621 18.6071674 128.522621 16.8436254L128.522621 12.1288499C128.522621 10.7252145 128.378658 9.71747621 128.162714 9.03365381zM98.7583508 13.4964947C97.8945752 12.4167752 95.8790986 11.0131397 92.6399399 9.32157903 91.5242297 8.74572859 90.8044166 8.24185945 90.5884727 7.84596227 90.3365381 7.4500651 90.1925755 6.838224 90.1925755 6.01043899 90.1925755 5.36260724 90.3005475 4.89472876 90.5164914 4.60680354 90.7324353 4.28288766 91.0563512 4.13892505 91.5242297 4.13892505 91.9201268 4.13892505 92.2080521 4.24689701 92.3880053 4.49883158 92.5679586 4.7147755 92.6399399 5.25463528 92.6399399 6.11841095L92.6399399 7.91794358 99.4061826 7.91794358 99.4061826 6.94619596C99.4061826 5.00270072 99.1902387 3.63505592 98.7583508 2.80727091 98.326463 2.01547655 97.4266967 1.33165415 96.0950425.791794358 94.7633884.251934568 93.143809-6.21724894e-15 91.2722951-6.21724894e-15 89.5447438-6.21724894e-15 88.069127.251934568 86.8454448.719813053 85.6217626 1.18769154 84.7219963 1.87151394 84.1821365 2.7352896 83.6422767 3.59906526 83.3543515 4.96671006 83.3543515 6.838224 83.3543515 8.1338875 83.5343048 9.17761642 83.9302019 10.0413921 84.3260991 10.8691771 84.7939776 11.5170088 85.4058187 11.9848873 85.9816691 12.4527658 87.2053513 13.2085695 89.004884 14.2522984 90.8044166 15.2960274 91.9561175 16.0518311 92.423996 16.4837189 92.8558838 16.9156067 93.1078184 17.8873544 93.1078184 19.2909898 93.1078184 19.9388216 92.9998464 20.4426907 92.7479118 20.7666066 92.4959773 21.0905224 92.1360708 21.2704757 91.6681923 21.2704757 91.2003138 21.2704757 90.8404073 21.1265131 90.660454 20.8745785 90.4805007 20.622644 90.3725288 20.0108029 90.3725288 19.1110366L90.3725288 17.3834852 83.6062861 17.3834852 83.6062861 18.2472609C83.6062861 20.0827842 83.82223 20.9825505 84.2541178 21.9902888 84.6860057 22.998027 85.585772 23.7898214 86.9534168 24.4376531 88.3210616 25.0854849 90.0126222 25.4094008 91.9561175 25.4094008 93.7196595 25.4094008 95.3032482 25.1214755 96.6349023 24.5816158 97.9665565 24.041756 98.8663228 23.3219429 99.3342013 22.4941579 99.8020798 21.6663729 100.018024 20.4067 100.018024 18.6431581 100.018024 16.3037656 99.5861358 14.5762143 98.7583508 13.4964947M139.427788 19.2190085C139.427788 20.2627374 139.355807 20.9105692 139.247835 21.1625038 139.139863 21.4144383 138.851938 21.5584009 138.42005 21.5584009 137.952172 21.5584009 137.664246 21.4144383 137.520284 21.1265131 137.376321 20.8385879 137.30434 20.1187748 137.30434 18.9310833L137.30434 10.9411584C137.30434 9.82544817 137.376321 9.10563512 137.484293 8.8177099 137.628256 8.52978467 137.916181 8.38582206 138.348069 8.38582206 138.815947 8.38582206 139.103872 8.52978467 139.211844 8.78171924 139.319816 9.03365381 139.355807 9.75346686 139.355807 10.9411584L139.355807 19.2190085 139.427788 19.2190085zM130.933994 5.11067267L130.933994 29.5123352 137.34033 29.5123352 137.34033 22.9260457C137.952172 23.6098681 138.635994 24.1137373 139.391798 24.4376531 140.147601 24.761569 140.939396 24.9415223 141.803171 24.9415223 142.882891 24.9415223 143.818648 24.7255784 144.610442 24.2936905 145.366246 23.8618027 145.906106 23.2499616 146.15804 22.5301486 146.409975 21.7743448 146.517947 20.5506627 146.517947 18.7871207L146.517947 10.6532332C146.517947 9.14162577 146.409975 8.02591554 146.230022 7.41407444 146.050068 6.7662427 145.546199 6.22638291 144.754405 5.72251377 143.962611 5.21864463 143.026854 5.00270072 141.947134 5.00270072 141.047368 5.00270072 140.219583 5.18265398 139.463779 5.50656985 138.707975 5.83048573 138.024153 6.37034552 137.376321 7.05416792L137.376321 5.11067267 130.933994 5.11067267zM16.987588 9.5015323L9.68148556 9.5015323 9.68148556 7.30610249C9.68148556 5.90246703 9.60950425 5.03869137 9.46554164 4.67878484 9.32157903 4.31887832 8.99766316 4.13892505 8.45780337 4.13892505 7.98992489 4.13892505 7.70199966 4.28288766 7.5220464 4.60680354 7.34209314 4.93071941 7.27011183 5.68652312 7.27011183 6.91020531L7.27011183 18.6071674C7.27011183 19.686887 7.34209314 20.4067 7.5220464 20.7666066 7.66600901 21.1265131 8.02591554 21.2704757 8.49379402 21.2704757 9.03365381 21.2704757 9.39356034 21.0905224 9.5735136 20.6946253 9.75346686 20.2987281 9.86143882 19.5429244 9.86143882 18.3912235L9.86143882 15.5119713 8.42181272 15.5119713 8.42181272 12.3807845 16.9515974 12.3807845 16.9515974 24.9055316 12.2368219 24.9055316 11.6969621 23.1779803C11.193093 23.933784 10.5812519 24.4736438 9.82544817 24.869541 9.06964446 25.2294475 8.16987815 25.4094008 7.12614922 25.4094008 5.90246703 25.4094008 4.75076615 25.1574662 3.67104657 24.6535971 2.59132699 24.1497279 1.79953263 23.5018962 1.22368219 22.7460925.6838224 21.9542981.359906526 21.1625038.215943916 20.3347187.0719813053 19.4709431 0 18.2112702 0 16.5557002L0 9.32157903C0 6.98218661.143962611 5.29062594.431887832 4.24689701.719813053 3.16717743 1.54759806 2.19542981 2.91524286 1.33165415 4.28288766.431887832 6.0824203 0 8.24185945 0 10.4012986 0 12.1648406.395897179 13.568476 1.15170088 14.9721115 1.90750459 15.9078685 2.80727091 16.3397563 3.85099983 16.7716441 4.89472876 16.987588 6.44232682 16.987588 8.42181272L16.987588 9.5015323zM147.81361 5.03869137C148.281489 5.03869137 148.677386 5.3985979 148.677386 5.90246703 148.677386 6.40633617 148.281489 6.7662427 147.81361 6.7662427 147.345732 6.7662427 146.949835 6.40633617 146.949835 5.90246703 146.949835 5.3985979 147.345732 5.03869137 147.81361 5.03869137zM147.81361 6.62228009C148.209508 6.62228009 148.533423 6.29836421 148.533423 5.90246703 148.533423 5.50656985 148.245498 5.18265398 147.81361 5.18265398 147.417713 5.18265398 147.093797 5.50656985 147.093797 5.90246703 147.129788 6.29836421 147.417713 6.62228009 147.81361 6.62228009zM147.489695 5.36260724L147.885592 5.36260724C148.137526 5.36260724 148.245498 5.4705792 148.245498 5.65053246 148.245498 5.83048573 148.137526 5.90246703 147.993564 5.93845769L148.281489 6.37034552 148.101536 6.37034552 147.81361 5.93845769 147.633657 5.93845769 147.633657 6.37034552 147.489695 6.37034552 147.489695 5.36260724zM147.633657 5.83048573L147.77762 5.83048573C147.921582 5.83048573 148.029554 5.83048573 148.029554 5.65053246 148.029554 5.50656985 147.921582 5.50656985 147.81361 5.50656985L147.597666 5.50656985 147.597666 5.83048573 147.633657 5.83048573z"/>
    </g>
    <path fill="#777" fill-rule="nonzero" d="M143.383172,0.507310625 L142.277699,0.507310625 L142.277699,0.0611760719 L144.996095,0.0611760719 L144.996095,0.507310625 L143.892428,0.507310625 L143.892428,3.6006304 L143.383172,3.6006304 L143.383172,0.507310625 Z M145.508963,0.0611760719 L146.350583,0.0611760719 L147.46883,2.99711235 L148.563982,0.0611760719 L149.402892,0.0611760719 L149.402892,3.6006304 L148.893379,3.6006304 L148.893379,0.539250974 L148.885121,0.539250974 L147.709459,3.6006304 L147.205106,3.6006304 L146.031379,0.539250974 L146.021315,0.539250974 L146.021315,3.6006304 L145.508963,3.6006304 L145.508963,0.0611760719 Z M22.1008226,0 L27.164995,0 L27.164995,18.8920725 L22.1008226,18.8920725 L22.1008226,0 Z M57.091222,0.0158413828 L63.3031875,0.0158413828 L70.6319805,18.9997424 L65.0748092,18.9997424 L63.656841,14.9496289 L56.5184867,14.9496289 L55.0178144,18.9997424 L49.8686155,18.9997424 L57.091222,0.0158413828 Z M60.1963016,3.93175394 L60.143273,3.93175394 L57.689375,11.3577563 L62.4578256,11.3577563 L60.1963016,3.93175394 Z M73.0980066,0.0137807151 L81.8467032,0.0137807151 C85.38685,0.0137807151 88.0317028,1.56237248 88.0317028,4.82608371 C88.0317028,7.22341298 86.8059795,8.55743772 84.6813495,9.26205728 L84.6813495,9.31511947 C87.2115004,9.83518048 88.5222501,11.1938044 88.5222501,13.5084494 C88.5222501,18.0504186 84.5167155,18.9997424 81.1116563,18.9997424 L73.0980066,18.9997424 L73.0980066,0.0137807151 Z M78.1645015,15.4137943 L79.6671092,15.4137943 C81.5191125,15.4137943 83.4531748,15.1386951 83.4531748,13.2092662 C83.4531748,11.1393255 81.4642775,10.9519336 79.7225893,10.9519336 L78.1647595,10.9519336 L78.1647595,15.4139231 L78.1645015,15.4137943 Z M78.1645015,7.52324013 L79.5828568,7.52324013 C81.2463569,7.52324013 82.9605631,7.11497034 82.9605631,5.50906626 C82.9605631,3.7672869 81.3288029,3.60784274 79.6402723,3.60784274 L78.1645015,3.60784274 L78.1645015,7.52324013 Z M95.3833329,11.8484528 L88.3552937,0.0137807151 L94.1845755,0.0137807151 L97.9192898,7.63039485 L101.597363,0.0137807151 L107.43116,0.0137807151 L100.451763,11.8484528 L100.451763,18.9997424 L95.3833329,18.9997424 L95.3833329,11.8484528 Z M114.201282,3.7672869 L109.517083,3.7672869 L109.517083,0.0137807151 L123.958039,0.0137807151 L123.958039,3.7672869 L119.274228,3.7672869 L119.274228,18.9997424 L114.201282,18.9997424 L114.201282,3.7672869 Z M126.37052,0.0137807151 L139.777352,0.0137807151 L139.777352,3.60810032 L131.436628,3.60810032 L131.436628,7.52324013 L139.312093,7.52324013 L139.312093,11.1126656 L131.436628,11.1126656 L131.436628,15.4137943 L140.074751,15.4137943 L140.074751,18.9997424 L126.37052,18.9997424 L126.37052,0.0137807151 Z M10.5919263,4.17014743 C7.22054221,4.44988307 5.37976391,6.65943399 5.37976391,9.51886799 C5.37976391,12.2984511 7.96023394,14.6356346 10.4523229,14.6356346 L10.9998986,14.6300966 L11.9211264,14.6300966 C11.9211264,14.6300966 12.5324398,14.6300966 12.5365685,14.035594 L12.5365685,8.06905948 L17.7404734,8.06905948 C17.7404734,11.4369632 17.7278291,19 17.7278291,19 C17.7278291,19 12.5911455,18.9956211 9.60902526,18.9956211 C4.0011478,18.9956211 0,14.3710964 0,9.51886799 C9.74065061e-16,4.27047619 4.35222075,-0.112692764 9.77146585,0.0812675818 L17.5564859,0.105995594 L17.5522281,4.17040502 L10.5919263,4.17040502 L10.5919263,4.17014743 Z M40.7078178,4.17014743 C37.3343694,4.44988307 35.4975908,6.65917641 35.4975908,9.51886799 C35.4975908,12.2984511 38.0741901,14.6356346 40.5682144,14.6356346 L41.1138548,14.6300966 L42.037276,14.6300966 C42.037276,14.6300966 42.6439445,14.6300966 42.6480733,14.035594 L42.6480733,8.06905948 L47.8438497,8.06905948 C47.8438497,11.4369632 47.8357212,19 47.8357212,19 C47.8357212,19 42.7035534,18.9956211 39.7231105,18.9956211 C34.1175554,18.9956211 30.1206654,14.3710964 30.1206654,9.51886799 C30.1206654,4.27047619 34.4684994,-0.112692764 39.8900669,0.0812675818 L47.6620555,0.105995594 L47.6599912,4.17040502 L40.7078178,4.17040502 L40.7078178,4.17014743 Z" transform="translate(170 28)"/>
  </g>
</svg>
