<svg xmlns="http://www.w3.org/2000/svg" xmlns:xlink="http://www.w3.org/1999/xlink" width="320" height="75" viewBox="0 0 320 75">
  <defs>
    <polygon id="partner_logos_03-a" points=".105 .004 147.214 .004 147.214 20.806 .105 20.806"/>
    <polygon id="partner_logos_03-c" points="0 0 149.006 0 149.006 34.7 0 34.7"/>
  </defs>
  <g fill="none" fill-rule="evenodd">
    <g transform="matrix(1 0 0 -1 1 49.414)">
      <polygon fill="#777" fill-rule="nonzero" points="17.95 21.354 12.061 11.874 6.165 21.354 .074 21.354 9.244 7.119 9.244 .557 14.463 .557 14.463 7.239 23.648 21.354" transform="translate(98.205 .57)"/>
      <polygon fill="#777" fill-rule="nonzero" points="11.285 21.354 .107 10.941 11.248 .557 18.209 .557 7.069 10.941 18.246 21.354" transform="translate(57.257 .57)"/>
      <polygon fill="#777" fill-rule="nonzero" points="23.739 21.924 28.961 21.924 28.961 1.127 23.739 1.127"/>
      <g transform="translate(0 1.124)">
        <mask id="partner_logos_03-b" fill="#fff">
          <use xlink:href="#partner_logos_03-a"/>
        </mask>
        <g mask="url(#partner_logos_03-b)">
          <g transform="translate(0 -.187)">
            <path fill="#777" fill-rule="nonzero" d="M1.1109852,0 L17.6191142,0 C20.5043428,0 22.3885737,1.57568777 22.3885737,4.92599109 L22.3885737,7.82336846 C22.3885737,10.7555863 20.8776338,12.7493595 17.6191142,12.7493595 L5.27829067,12.7493595 L5.27829067,16.639128 L21.2009305,16.639128 L21.2009305,20.8312217 L4.93610723,20.8312217 C1.99532941,20.8312217 0.207754232,19.1701186 0.207754232,15.9052306 L0.207754232,13.3135502 C0.207754232,10.4746149 1.83423656,8.53928366 4.93610723,8.53928366 L17.3202592,8.53928366 L17.3202592,4.19996091 L1.1109852,4.19996091 L1.1109852,0" transform="translate(75.599 .157)"/>
            <path fill="#777" fill-rule="nonzero" d="M0.174683207,0 L17.5838212,0 C20.4679388,0 22.3555026,1.57568777 22.3555026,4.92599109 L22.3555026,7.82336846 C22.3555026,10.7555863 20.8423408,12.7493595 17.5838212,12.7493595 L5.2407757,12.7493595 L5.2407757,16.639128 L21.1623045,16.639128 L21.1623045,20.8312217 L4.89859226,20.8312217 C1.96003642,20.8312217 0.171350251,19.1701186 0.171350251,15.9052306 L0.171350251,13.3135502 C0.171350251,10.4746149 1.80005455,8.53928366 4.89859226,8.53928366 L17.2838552,8.53928366 L17.2838552,4.19996091 L0.174683207,4.19996091 L0.174683207,0" transform="translate(122.045 .157)"/>
            <polygon fill="#777" fill-rule="nonzero" points="0 0 20.455 0 20.455 4.2 5.218 4.2 5.218 20.831 0 20.831" transform="translate(.104 .157)"/>
            <polygon fill="#777" fill-rule="nonzero" points="0 0 4.762 0 4.762 14.833 20.285 0 23.558 0 23.558 20.831 18.792 20.831 18.792 8.346 5.729 20.831 0 20.831" transform="translate(33.075 .157)"/>
          </g>
        </g>
      </g>
      <path fill="#777" fill-rule="nonzero" d="M3.33295559,2.24777143 L3.05854224,2.24777143 L2.56526482,1.16546949 L2.55748792,1.16546949 L2.07532035,2.24777143 L1.800907,2.24777143 L1.800907,0.803578286 L2.0186601,0.803578286 L2.0186601,1.84429646 L2.03088094,1.84429646 L2.48971782,0.803578286 L2.61637014,0.803578286 L3.08853885,1.84429646 L3.09853771,1.84429646 L3.09853771,0.803578286 L3.33295559,0.803578286 L3.33295559,2.24777143 Z M1.6131505,2.03086149 L1.16209052,2.03086149 L1.16209052,0.803578286 L0.924339683,0.803578286 L0.924339683,2.03086149 L0.47883462,2.03086149 L0.47883462,2.24777143 L1.6131505,2.24777143 L1.6131505,2.03086149 Z" transform="translate(143.881 19.685)"/>
    </g>
    <g transform="translate(171 20)">
      <mask id="partner_logos_03-d" fill="#fff">
        <use xlink:href="#partner_logos_03-c"/>
      </mask>
      <path fill="#777" d="M146.281811,1.63786648 L145.708451,1.63786648 L145.708451,2.71019161 L146.281811,2.71019161 C146.625089,2.71019161 146.863784,2.4874026 146.863784,2.17892551 C146.863784,1.8692243 146.625089,1.63786648 146.281811,1.63786648 Z M146.881009,4.3247999 L146.174768,3.0737539 L145.708451,3.0737539 L145.708451,4.3247999 L145.282738,4.3247999 L145.282738,1.25839069 L146.327336,1.25839069 C146.863784,1.25839069 147.29688,1.65990056 147.29688,2.17892551 C147.29688,2.62695176 147.020043,2.90360186 146.639854,3.01989282 L147.378085,4.3247999 L146.881009,4.3247999 Z M146.198145,0.408854561 C144.891475,0.408854561 143.838265,1.48240381 143.838265,2.79465558 C143.838265,4.10935558 144.891475,5.18290483 146.198145,5.18290483 C147.499893,5.18290483 148.565407,4.10935558 148.565407,2.79465558 C148.565407,1.48240381 147.499893,0.408854561 146.198145,0.408854561 Z M146.198145,5.59298351 C144.644168,5.59298351 143.387944,4.33948928 143.387944,2.79465558 C143.387944,1.25104599 144.644168,0 146.198145,0 C147.749662,0 149.005886,1.25104599 149.005886,2.79465558 C149.005886,4.33948928 147.749662,5.59298351 146.198145,5.59298351 Z M54.5860709,34.7000008 L62.5306727,12.892384 C65.1821544,5.62236228 55.4571841,8.27991693 53.2843226,9.95083452 C51.5777773,11.2618622 48.4673618,14.2511521 47.3218725,17.38856 L41.0136839,34.7000008 L27.2936506,34.7000008 L35.2394828,12.892384 C37.8885037,5.62236228 28.1672246,8.27991693 25.9931327,9.95083452 C24.2841267,11.2618622 21.1724807,14.2523762 20.0282218,17.3910082 L13.7212637,34.7000008 L0,34.7000008 L12.6151467,0.0856880818 C16.9842471,0.0856880818 19.3478184,1.08579041 21.3336613,3.02846163 C22.059589,3.7384486 22.5111406,4.6577593 22.7596786,5.64072401 C25.3336459,4.09099385 27.6098598,2.92930828 29.1404599,2.33561229 C31.9937248,1.22289134 35.5372362,0.0844639663 39.907567,0.0856880818 C44.275437,0.0856880818 46.6390083,1.08579041 48.6248512,3.02846163 C49.3507788,3.7384486 49.8047913,4.6577593 50.0520988,5.64072401 C52.6260661,4.09099385 54.9022801,2.92930828 56.4328801,2.33561229 C59.2849147,1.22289134 62.8308869,0.0844639663 67.1987569,0.0856880818 C71.5690876,0.0856880818 73.9314286,1.08579041 75.9172714,3.02846163 C77.9006535,4.96378816 77.8538988,8.50515417 77.1365839,10.4674112 L68.3061042,34.7000008 L54.5860709,34.7000008 Z M75.2663973,28.4961836 C79.550601,29.273497 83.966456,29.6786792 88.4733596,29.6786792 L88.4758204,29.6786792 C93.1033018,29.6786792 96.4622553,28.6528704 96.8252192,25.5264796 C97.0011644,24.0379552 95.5886813,22.9668541 92.9974886,21.5468802 C90.033489,19.9188067 87.5419575,19.1072181 84.9679902,17.3910082 C82.3915621,15.6772466 81.281754,12.9805203 82.1504064,10.1234348 C83.163014,6.78527196 85.5192031,4.85116954 89.1082388,3.0260134 C93.317389,0.888707819 96.6505044,0.0856880818 104.768591,0.0856880818 C109.879614,0.0856880818 114.878672,0.575334263 119.717779,1.50688612 L117.974323,6.28583285 C113.690119,5.50851954 109.276725,5.10333733 104.768591,5.10333733 C100.138648,5.10333733 96.7784645,6.13159431 96.4155007,9.25798518 C96.2420163,10.7489578 97.6520385,11.8200588 100.245692,13.2400327 C103.207231,14.8656581 105.701223,15.6772466 108.27519,17.3910082 C110.852849,19.1072181 111.961427,21.8039445 111.094005,24.6634782 C110.078936,27.9955204 107.721517,29.930847 104.133711,31.7584513 C99.9257917,33.896981 96.5902155,34.7000008 88.4758204,34.7000008 L88.4733596,34.7000008 C83.3623366,34.7000008 78.3632786,34.2079064 73.5266316,33.2751304 L75.2663973,28.4961836 Z M124.933385,1.50688612 L123.105032,6.52453537 C130.268339,5.10333733 137.344288,5.10333733 137.344288,5.10333733 L139.173872,0.0856880818 C139.173872,0.0856880818 132.053629,0.0856880818 124.933385,1.50688612 Z M126.558725,34.7000008 L136.084373,8.56391171 C136.084373,8.56391171 128.962899,8.56391171 121.843886,9.98633387 L112.838692,34.7000008 L126.558725,34.7000008 Z" mask="url(#partner_logos_03-d)"/>
    </g>
  </g>
</svg>
